<svg width="34" height="33" viewBox="0 0 34 33" fill="none" xmlns="http://www.w3.org/2000/svg">
<path d="M25.2948 28.8339L9.34321 12.5548V7.91748M25.2948 28.8339L29.8962 24.1382M25.2948 28.8339L27.9232 31.5148C28.0741 31.6686 28.2533 31.7906 28.4505 31.8739C28.6478 31.9571 28.8592 32 29.0728 32C29.2863 32 29.4978 31.9571 29.695 31.8739C29.8923 31.7906 30.0715 31.6686 30.2224 31.5148L32.5236 29.167C32.8287 28.8552 33 28.4331 33 27.993C33 27.553 32.8287 27.1309 32.5236 26.8191L29.8962 24.1382M9.34321 7.91748H14.0061L29.8962 24.1382M9.34321 7.91748H1M1 1H23.1466M20.7829 14.835H23.1466M1 14.835H11.578M1 21.7524H18.1022M1 28.6699H23.1466" stroke="white" stroke-width="2" stroke-linecap="round" stroke-linejoin="round"/>
</svg>
