<svg width="28" height="32" viewBox="0 0 28 32" fill="none" xmlns="http://www.w3.org/2000/svg">
<path d="M20.5532 8.66055V6.89908C20.5532 6.73761 20.4191 6.6055 20.2553 6.6055H5.95745C5.79362 6.6055 5.65957 6.73761 5.65957 6.89908V8.66055C5.65957 8.82202 5.79362 8.95413 5.95745 8.95413H20.2553C20.4191 8.95413 20.5532 8.82202 20.5532 8.66055ZM5.95745 11.8899C5.79362 11.8899 5.65957 12.022 5.65957 12.1835V13.945C5.65957 14.1064 5.79362 14.2385 5.95745 14.2385H12.8085C12.9723 14.2385 13.1064 14.1064 13.1064 13.945V12.1835C13.1064 12.022 12.9723 11.8899 12.8085 11.8899H5.95745ZM19.9574 16.1468C15.5154 16.1468 11.9149 19.6954 11.9149 24.0734C11.9149 28.4514 15.5154 32 19.9574 32C24.3995 32 28 28.4514 28 24.0734C28 19.6954 24.3995 16.1468 19.9574 16.1468ZM23.9601 28.0183C22.8915 29.0716 21.4691 29.6514 19.9574 29.6514C18.4457 29.6514 17.0234 29.0716 15.9548 28.0183C14.8862 26.9651 14.2979 25.5633 14.2979 24.0734C14.2979 22.5835 14.8862 21.1817 15.9548 20.1284C17.0234 19.0752 18.4457 18.4954 19.9574 18.4954C21.4691 18.4954 22.8915 19.0752 23.9601 20.1284C25.0287 21.1817 25.617 22.5835 25.617 24.0734C25.617 25.5633 25.0287 26.9651 23.9601 28.0183ZM23.2713 21.2844H21.6218C21.525 21.2844 21.4356 21.3284 21.3798 21.4055L19.0154 24.6275L18.1553 23.4569C18.1278 23.4191 18.0914 23.3883 18.0493 23.3673C18.0072 23.3462 17.9605 23.3354 17.9133 23.3358H16.2713C16.0293 23.3358 15.8878 23.6073 16.0293 23.8018L18.7771 27.5486C18.8963 27.7101 19.1383 27.7101 19.2574 27.5486L23.5096 21.7505C23.6548 21.556 23.5133 21.2844 23.2713 21.2844ZM11.3191 28.4771H2.68085V2.6422H23.5319V15.2661C23.5319 15.4275 23.666 15.5596 23.8298 15.5596H25.9149C26.0787 15.5596 26.2128 15.4275 26.2128 15.2661V1.17431C26.2128 0.524771 25.6803 0 25.0213 0H1.19149C0.532447 0 0 0.524771 0 1.17431V29.945C0 30.5945 0.532447 31.1193 1.19149 31.1193H11.3191C11.483 31.1193 11.617 30.9872 11.617 30.8257V28.7706C11.617 28.6092 11.483 28.4771 11.3191 28.4771Z" fill="white"/>
</svg>
