<svg width="48" height="48" viewBox="0 0 48 48" fill="none" xmlns="http://www.w3.org/2000/svg">
<path d="M37.7143 25.3337V30.9747H10.2857V12.9234H21.7143V10.667H10.2857C9.67951 10.667 9.09812 10.9047 8.66947 11.3279C8.24082 11.751 8 12.325 8 12.9234V30.9747C8 31.5731 8.24082 32.147 8.66947 32.5702C9.09812 32.9934 9.67951 33.2311 10.2857 33.2311H19.4286V37.7439H14.8571V40.0003H33.1429V37.7439H28.5714V33.2311H37.7143C38.3205 33.2311 38.9019 32.9934 39.3305 32.5702C39.7592 32.147 40 31.5731 40 30.9747V25.3337H37.7143ZM26.2857 37.7439H21.7143V33.2311H26.2857V37.7439Z" fill="white"/>
<path d="M44.4444 15.2382V12.3176H41.3763C41.188 11.4034 40.825 10.5342 40.3074 9.75763L42.4832 7.58176L40.4183 5.51687L38.2425 7.69274C37.4659 7.17508 36.5967 6.81213 35.6825 6.62379V3.55566H32.7619V6.62379C31.8478 6.81213 30.9786 7.17508 30.202 7.69274L28.0261 5.51687L25.9612 7.58176L28.1371 9.75763C27.6194 10.5342 27.2565 11.4034 27.0681 12.3176H24V15.2382H27.0681C27.2565 16.1523 27.6194 17.0215 28.1371 17.7981L25.9612 19.974L28.0261 22.0389L30.202 19.863C30.9786 20.3807 31.8478 20.7436 32.7619 20.932V24.0001H35.6825V20.932C36.5967 20.7436 37.4659 20.3807 38.2425 19.863L40.4183 22.0389L42.4832 19.974L40.3074 17.7981C40.825 17.0215 41.188 16.1523 41.3763 15.2382H44.4444ZM34.2222 18.1588C33.3558 18.1588 32.5087 17.9019 31.7883 17.4205C31.0679 16.9391 30.5063 16.2549 30.1747 15.4544C29.8432 14.6539 29.7564 13.773 29.9254 12.9232C30.0945 12.0734 30.5117 11.2928 31.1244 10.6801C31.7371 10.0674 32.5177 9.65015 33.3675 9.48111C34.2174 9.31207 35.0982 9.39883 35.8987 9.73041C36.6993 10.062 37.3835 10.6235 37.8649 11.344C38.3462 12.0644 38.6032 12.9114 38.6032 13.7779C38.602 14.9394 38.1401 16.0531 37.3187 16.8744C36.4974 17.6957 35.3838 18.1577 34.2222 18.1588V18.1588Z" fill="white"/>
</svg>
