<svg width="32" height="32" viewBox="0 0 32 32" fill="none" xmlns="http://www.w3.org/2000/svg">
<g clip-path="url(#clip0_433_259)">
<path d="M29.1999 25.0043L28.8977 24.7376C28.0403 23.9737 27.2899 23.0977 26.6666 22.1332C25.9859 20.8021 25.5779 19.3485 25.4666 17.8576V13.4665C25.4725 11.1248 24.6231 8.86161 23.0779 7.10206C21.5328 5.3425 19.3983 4.20774 17.0755 3.91097V2.7643C17.0755 2.44958 16.9505 2.14775 16.7279 1.9252C16.5054 1.70266 16.2036 1.57764 15.8888 1.57764C15.5741 1.57764 15.2723 1.70266 15.0497 1.9252C14.8272 2.14775 14.7022 2.44958 14.7022 2.7643V3.92875C12.4002 4.24691 10.2915 5.38853 8.76664 7.14218C7.2418 8.89582 6.40415 11.1427 6.40884 13.4665V17.8576C6.29751 19.3485 5.88953 20.8021 5.20884 22.1332C4.59629 23.0953 3.8579 23.9712 3.01328 24.7376L2.71106 25.0043V27.511H29.1999V25.0043Z" fill="#002664"/>
<path d="M13.6178 28.4443C13.6957 29.0078 13.9749 29.524 14.4038 29.8976C14.8327 30.2713 15.3823 30.4771 15.9511 30.4771C16.5199 30.4771 17.0695 30.2713 17.4984 29.8976C17.9273 29.524 18.2065 29.0078 18.2845 28.4443H13.6178Z" fill="#002664"/>
</g>
<defs>
<clipPath id="clip0_433_259">
<rect width="32" height="32" fill="white"/>
</clipPath>
</defs>
</svg>
