<svg width="32" height="32" viewBox="0 0 32 32" fill="none" xmlns="http://www.w3.org/2000/svg">
<path d="M1.77778 17.7778H12.4444C12.9159 17.7778 13.3681 17.5905 13.7015 17.2571C14.0349 16.9237 14.2222 16.4715 14.2222 16V1.77778C14.2222 1.30628 14.0349 0.854097 13.7015 0.520699C13.3681 0.187301 12.9159 0 12.4444 0H1.77778C1.30628 0 0.854097 0.187301 0.520699 0.520699C0.187301 0.854097 0 1.30628 0 1.77778V16C0 16.4715 0.187301 16.9237 0.520699 17.2571C0.854097 17.5905 1.30628 17.7778 1.77778 17.7778ZM0 30.2222C0 30.6937 0.187301 31.1459 0.520699 31.4793C0.854097 31.8127 1.30628 32 1.77778 32H12.4444C12.9159 32 13.3681 31.8127 13.7015 31.4793C14.0349 31.1459 14.2222 30.6937 14.2222 30.2222V23.1111C14.2222 22.6396 14.0349 22.1874 13.7015 21.854C13.3681 21.5206 12.9159 21.3333 12.4444 21.3333H1.77778C1.30628 21.3333 0.854097 21.5206 0.520699 21.854C0.187301 22.1874 0 22.6396 0 23.1111V30.2222ZM17.7778 30.2222C17.7778 30.6937 17.9651 31.1459 18.2985 31.4793C18.6319 31.8127 19.0841 32 19.5556 32H30.2222C30.6937 32 31.1459 31.8127 31.4793 31.4793C31.8127 31.1459 32 30.6937 32 30.2222V17.7778C32 17.3063 31.8127 16.8541 31.4793 16.5207C31.1459 16.1873 30.6937 16 30.2222 16H19.5556C19.0841 16 18.6319 16.1873 18.2985 16.5207C17.9651 16.8541 17.7778 17.3063 17.7778 17.7778V30.2222ZM19.5556 12.4444H30.2222C30.6937 12.4444 31.1459 12.2571 31.4793 11.9237C31.8127 11.5903 32 11.1382 32 10.6667V1.77778C32 1.30628 31.8127 0.854097 31.4793 0.520699C31.1459 0.187301 30.6937 0 30.2222 0H19.5556C19.0841 0 18.6319 0.187301 18.2985 0.520699C17.9651 0.854097 17.7778 1.30628 17.7778 1.77778V10.6667C17.7778 11.1382 17.9651 11.5903 18.2985 11.9237C18.6319 12.2571 19.0841 12.4444 19.5556 12.4444Z" fill="white"/>
</svg>
