<svg width="36" height="36" viewBox="0 0 36 36" fill="none" xmlns="http://www.w3.org/2000/svg">
<path d="M25.5 0C22.8105 0 20.373 0.504 18.468 1.4535C16.5645 2.403 15 3.9495 15 6V12C15 12.1935 15.0645 12.381 15.0945 12.5625C13.593 12.181 12.0492 11.992 10.5 12C7.8105 12 5.373 12.504 3.468 13.4535C1.5645 14.403 0 15.9495 0 18V30C0 32.0505 1.5645 33.597 3.4695 34.5465C5.373 35.496 7.8105 36 10.5 36C13.1895 36 15.627 35.496 17.532 34.5465C19.434 33.597 21 32.0505 21 30V29.391C22.4674 29.7877 23.98 29.9924 25.5 30C28.1895 30 30.627 29.496 32.532 28.5465C34.434 27.597 36 26.0505 36 24V6C36 3.9495 34.4355 2.403 32.5305 1.4535C30.6285 0.504 28.191 0 25.5 0ZM25.5 3C27.7845 3 29.8185 3.492 31.1715 4.1715C32.526 4.851 33 5.5665 33 6C33 6.435 32.526 7.149 31.1715 7.8285C29.82 8.508 27.7845 9 25.5 9C23.2155 9 21.1815 8.508 19.8285 7.8285C18.474 7.149 18 6.4335 18 6C18 5.565 18.474 4.851 19.8285 4.1715C21.18 3.492 23.2155 3 25.5 3ZM18 10.266C18.1575 10.353 18.3045 10.4655 18.4695 10.5465C20.373 11.496 22.8105 12 25.5 12C28.1895 12 30.627 11.496 32.532 10.5465C32.6955 10.4655 32.8425 10.353 33 10.266V12C33 12.435 32.526 13.149 31.1715 13.8285C29.8185 14.508 27.7845 15 25.5 15C23.2155 15 21.1815 14.508 19.8285 13.8285C18.474 13.149 18 12.4335 18 12V10.266ZM10.5 15C12.7845 15 14.8185 15.492 16.1715 16.1715C17.526 16.851 18 17.5665 18 18C18 18.435 17.526 19.149 16.1715 19.8285C14.8185 20.508 12.7845 21 10.5 21C8.2155 21 6.1815 20.508 4.8285 19.8285C3.474 19.149 3 18.4335 3 18C3 17.565 3.474 16.851 4.8285 16.1715C6.18 15.492 8.2155 15 10.5 15ZM33 16.266V18C33 18.435 32.526 19.149 31.1715 19.8285C29.8185 20.508 27.7845 21 25.5 21C23.972 21.0083 22.4526 20.7708 21 20.2965V18C21 17.8065 20.9355 17.619 20.9055 17.4375C22.3005 17.8005 23.847 18 25.5 18C28.1895 18 30.627 17.496 32.532 16.5465C32.6955 16.4655 32.8425 16.353 33 16.266ZM3 22.266C3.1575 22.353 3.3045 22.4655 3.4695 22.5465C5.373 23.496 7.8105 24 10.5 24C13.1895 24 15.627 23.496 17.532 22.5465C17.6955 22.4655 17.8425 22.353 18 22.266V24C18 24.435 17.526 25.149 16.1715 25.8285C14.8185 26.508 12.7845 27 10.5 27C8.2155 27 6.1815 26.508 4.8285 25.8285C3.474 25.149 3 24.4335 3 24V22.266ZM33 22.266V24C33 24.435 32.526 25.149 31.1715 25.8285C29.8185 26.508 27.7845 27 25.5 27C23.7945 27 22.254 26.76 21 26.343V23.4375C22.377 23.8005 23.877 24 25.5 24C28.1895 24 30.627 23.496 32.532 22.5465C32.6955 22.4655 32.8425 22.353 33 22.266ZM3 28.266C3.1575 28.353 3.3045 28.4655 3.4695 28.5465C5.373 29.496 7.8105 30 10.5 30C13.1895 30 15.627 29.496 17.532 28.5465C17.6955 28.4655 17.8425 28.353 18 28.266V30C18 30.435 17.526 31.149 16.1715 31.8285C14.8185 32.508 12.7845 33 10.5 33C8.2155 33 6.1815 32.508 4.8285 31.8285C3.474 31.149 3 30.4335 3 30V28.266Z" fill="white"/>
</svg>
