<svg width="32" height="32" viewBox="0 0 32 32" fill="none" xmlns="http://www.w3.org/2000/svg">
<g clip-path="url(#clip0_432_361)">
<path d="M21.3334 17.0558V19.1998H17.0667V17.0558H21.3334ZM21.3334 12.7998V14.9225H17.0667V12.7998H21.3334ZM14.9334 12.7998H10.6667V14.9225H14.9334V12.7998ZM14.9334 17.0558H10.6667V19.1998H14.9334V17.0558Z" fill="white"/>
<path fill-rule="evenodd" clip-rule="evenodd" d="M2.13336 3.2C2.13336 2.35131 2.4705 1.53737 3.07062 0.937258C3.67074 0.337142 4.48467 0 5.33336 0L22.8416 0L29.8667 7.02507V28.8C29.8667 29.6487 29.5296 30.4626 28.9294 31.0627C28.3293 31.6629 27.5154 32 26.6667 32H5.33336C4.48467 32 3.67074 31.6629 3.07062 31.0627C2.4705 30.4626 2.13336 29.6487 2.13336 28.8V3.2ZM8.53336 8.53333H14.9334V6.4H8.53336V8.53333ZM23.4667 10.6667H8.53336V21.3333H23.4667V10.6667ZM23.4667 25.6H17.0667V23.4667H23.4667V25.6Z" fill="white"/>
</g>
<defs>
<clipPath id="clip0_432_361">
<rect width="32" height="32" fill="white"/>
</clipPath>
</defs>
</svg>
