<svg width="32" height="36" viewBox="0 0 32 36" fill="none" xmlns="http://www.w3.org/2000/svg">
<path d="M10 26.8889V23.3333M16 26.8889V19.7778M22 26.8889V16.2222M26 34H6C4.93913 34 3.92172 33.6254 3.17157 32.9586C2.42143 32.2918 2 31.3874 2 30.4444V5.55556C2 4.61256 2.42143 3.70819 3.17157 3.0414C3.92172 2.3746 4.93913 2 6 2H17.172C17.7024 2.0001 18.211 2.18747 18.586 2.52089L29.414 12.1458C29.7891 12.4791 29.9999 12.9312 30 13.4027V30.4444C30 31.3874 29.5786 32.2918 28.8284 32.9586C28.0783 33.6254 27.0609 34 26 34Z" stroke="white" stroke-width="3" stroke-linecap="round" stroke-linejoin="round"/>
</svg>
