<svg width="32" height="32" viewBox="0 0 32 32" fill="none" xmlns="http://www.w3.org/2000/svg">
<path d="M20.2 22.44C20.4933 22.7333 20.8533 22.88 21.28 22.88C21.7067 22.88 22.08 22.72 22.4 22.4C22.6933 22.1067 22.84 21.7333 22.84 21.28C22.84 20.8267 22.6933 20.4533 22.4 20.16L17.6 15.36V9.56C17.6 9.10667 17.4469 8.73333 17.1408 8.44C16.8336 8.14667 16.4533 8 16 8C15.5467 8 15.1669 8.15307 14.8608 8.4592C14.5536 8.7664 14.4 9.14667 14.4 9.6V15.96C14.4 16.1733 14.44 16.3797 14.52 16.5792C14.6 16.7797 14.72 16.96 14.88 17.12L20.2 22.44ZM16 32C13.7867 32 11.7067 31.5797 9.76 30.7392C7.81333 29.8997 6.12 28.76 4.68 27.32C3.24 25.88 2.10027 24.1867 1.2608 22.24C0.420267 20.2933 0 18.2133 0 16C0 13.7867 0.420267 11.7067 1.2608 9.76C2.10027 7.81333 3.24 6.12 4.68 4.68C6.12 3.24 7.81333 2.09973 9.76 1.2592C11.7067 0.419733 13.7867 0 16 0C18.2133 0 20.2933 0.419733 22.24 1.2592C24.1867 2.09973 25.88 3.24 27.32 4.68C28.76 6.12 29.8997 7.81333 30.7392 9.76C31.5797 11.7067 32 13.7867 32 16C32 18.2133 31.5797 20.2933 30.7392 22.24C29.8997 24.1867 28.76 25.88 27.32 27.32C25.88 28.76 24.1867 29.8997 22.24 30.7392C20.2933 31.5797 18.2133 32 16 32Z" fill="white"/>
</svg>
