<svg width="35" height="35" viewBox="0 0 35 35" fill="none" xmlns="http://www.w3.org/2000/svg">
<path d="M12.9213 3.76071C12.2462 6.71391 14.2017 11.7436 17.5074 11.7436C20.7899 11.7436 22.7454 6.71391 22.0703 3.76071C21.5582 1.49967 19.5561 0 17.5074 0C15.4355 0 13.4567 1.49967 12.9213 3.76071ZM3.30669 5.83718C2.72469 8.32894 4.40085 12.5972 7.19444 12.5972C9.98803 12.5972 11.6642 8.32894 11.0822 5.83718C10.6399 3.92222 8.94043 2.63019 7.19444 2.63019C5.44844 2.63019 3.74901 3.92222 3.30669 5.83718V5.83718ZM23.9327 5.83718C23.3507 8.32894 25.0269 12.5972 27.7972 12.5972C30.5908 12.5972 32.2669 8.32894 31.6849 5.83718C31.2426 3.92222 29.5432 2.63019 27.7972 2.63019C26.0745 2.63019 24.375 3.92222 23.9327 5.83718V5.83718ZM22.5592 32.2083L25.4692 22.2874C27.285 16.5425 23.8163 13.0125 17.5074 13.0125C11.1753 13.0125 7.7066 16.5425 9.49915 22.2874L12.4324 32.2083C12.9679 33.8695 15.1795 35 17.5074 35C19.7889 35 22.0237 33.8695 22.5592 32.2083V32.2083ZM8.35843 14.6045C7.21772 16.1503 6.12356 18.8266 7.38068 22.8873L9.98803 31.6315C9.19651 32.0929 8.19547 32.3467 7.19444 32.3467C5.21564 32.3467 3.35325 31.4008 2.88765 29.9703L0.396699 21.5491C-1.1165 16.6809 1.81677 13.7047 7.19444 13.7047C7.823 13.7047 8.45155 13.7508 9.03355 13.8431C8.80075 14.0738 8.56795 14.3507 8.35843 14.6045V14.6045ZM27.7972 13.7047C33.1748 13.7047 36.1314 16.6809 34.5949 21.5491L32.104 29.9703C31.6384 31.4008 29.776 32.3467 27.7972 32.3467C26.7961 32.3467 25.7951 32.0929 25.0036 31.6315L27.5877 22.9334C28.868 18.8266 27.7739 16.1503 26.6099 14.6045C26.4237 14.3507 26.1909 14.0738 25.9581 13.8431C26.5401 13.7508 27.1453 13.7047 27.7972 13.7047V13.7047Z" fill="white"/>
</svg>
