<svg width="32" height="26" viewBox="0 0 32 26" fill="none" xmlns="http://www.w3.org/2000/svg">
<path d="M12 13C13.5913 13 15.1174 12.3152 16.2426 11.0962C17.3679 9.87721 18 8.22391 18 6.5C18 4.77609 17.3679 3.12279 16.2426 1.90381C15.1174 0.68482 13.5913 0 12 0C10.4087 0 8.88258 0.68482 7.75736 1.90381C6.63214 3.12279 6 4.77609 6 6.5C6 8.22391 6.63214 9.87721 7.75736 11.0962C8.88258 12.3152 10.4087 13 12 13V13ZM2 26C2 26 0 26 0 23.8333C0 21.6667 2 15.1667 12 15.1667C22 15.1667 24 21.6667 24 23.8333C24 26 22 26 22 26H2ZM22 3.25C22 2.96268 22.1054 2.68713 22.2929 2.48397C22.4804 2.2808 22.7348 2.16667 23 2.16667H31C31.2652 2.16667 31.5196 2.2808 31.7071 2.48397C31.8946 2.68713 32 2.96268 32 3.25C32 3.53732 31.8946 3.81287 31.7071 4.01603C31.5196 4.2192 31.2652 4.33333 31 4.33333H23C22.7348 4.33333 22.4804 4.2192 22.2929 4.01603C22.1054 3.81287 22 3.53732 22 3.25ZM23 8.66667C22.7348 8.66667 22.4804 8.7808 22.2929 8.98397C22.1054 9.18713 22 9.46268 22 9.75C22 10.0373 22.1054 10.3129 22.2929 10.516C22.4804 10.7192 22.7348 10.8333 23 10.8333H31C31.2652 10.8333 31.5196 10.7192 31.7071 10.516C31.8946 10.3129 32 10.0373 32 9.75C32 9.46268 31.8946 9.18713 31.7071 8.98397C31.5196 8.7808 31.2652 8.66667 31 8.66667H23ZM27 15.1667C26.7348 15.1667 26.4804 15.2808 26.2929 15.484C26.1054 15.6871 26 15.9627 26 16.25C26 16.5373 26.1054 16.8129 26.2929 17.016C26.4804 17.2192 26.7348 17.3333 27 17.3333H31C31.2652 17.3333 31.5196 17.2192 31.7071 17.016C31.8946 16.8129 32 16.5373 32 16.25C32 15.9627 31.8946 15.6871 31.7071 15.484C31.5196 15.2808 31.2652 15.1667 31 15.1667H27ZM27 21.6667C26.7348 21.6667 26.4804 21.7808 26.2929 21.984C26.1054 22.1871 26 22.4627 26 22.75C26 23.0373 26.1054 23.3129 26.2929 23.516C26.4804 23.7192 26.7348 23.8333 27 23.8333H31C31.2652 23.8333 31.5196 23.7192 31.7071 23.516C31.8946 23.3129 32 23.0373 32 22.75C32 22.4627 31.8946 22.1871 31.7071 21.984C31.5196 21.7808 31.2652 21.6667 31 21.6667H27Z" fill="white"/>
</svg>
